<svg width="353" height="292" viewBox="0 0 353 292" fill="none" xmlns="http://www.w3.org/2000/svg">
<path d="M235.328 99.65C250.408 95.57 248.048 112.94 252.818 120.55C258.298 129.3 267.828 137.16 275.228 144C286.828 154.72 282.548 155.11 284.318 168.8C285.718 179.61 289.378 191.15 290.158 201.83C290.808 210.6 288.788 219.77 291.668 228.25L292.728 229.1C311.748 222.52 322.818 238.43 328.048 254.13L313.598 233.21C303.488 225.31 287.868 231.67 276.938 235.43C262.428 240.43 244.608 247.4 230.978 254.27C226.108 256.72 208.808 265.89 206.918 270.09C206.078 271.96 207.238 274.93 205.418 275.05C203.928 262.91 220.268 260.54 227.258 253.53C224.918 247.65 221.478 241.84 220.618 235.44C219.548 227.44 222.728 219.77 215.408 213.74C213.758 212.38 198.808 205.04 196.708 204.53C179.058 200.21 157.048 202.13 139.048 198.38C129.578 194.54 128.838 186.63 129.618 177.41C122.218 178.12 116.208 181.25 109.678 184.37C114.608 177.84 122.288 178.04 129.458 176.23L131.618 159.47C104.508 165.27 116.958 153.94 133.138 150.51L136.428 133.81L135.088 131.57L104.018 145.32C97.7984 148.76 98.4784 156.58 95.9184 163.13C91.6984 173.88 79.5984 186.64 81.8184 198.78C82.4084 202 87.2384 207.05 88.1284 210.51C90.0884 218.17 73.2084 237.08 70.3084 245.17C69.0884 242.94 71.5684 239.56 72.6384 237.53C75.1784 232.71 85.8784 218.65 86.5684 215.55C87.6384 210.76 84.4584 206.41 81.9984 202.59C75.4084 192.34 61.0284 179.66 50.7784 173C48.0784 171.25 33.2584 162.54 31.4184 162.53C27.1284 162.51 24.3484 170.24 20.9584 172.42C20.2484 168.68 31.3584 158.57 32.8984 159.47C33.0084 159.54 32.5984 160.75 34.1384 161.78C42.9884 167.73 52.6084 171.16 61.3084 178.42C66.8184 183.02 72.9084 191.66 78.2784 195.35C79.1184 195.93 79.2584 196.74 80.7784 196.33C79.8584 183.97 89.3184 174.7 93.9184 164.12C98.2284 154.19 94.9184 147.82 105.358 142.67C118.318 136.28 131.098 134.02 137.658 118.15C138.608 115.86 142.018 101.89 141.528 100.32C139.198 92.89 122.928 109.37 119.988 111.45C111.778 117.26 102.988 120.64 93.5084 123.85L69.8184 130.07C71.5284 128.4 74.0084 127.26 76.2484 126.53C80.2484 125.22 99.8484 121.41 101.538 119.42C102.218 118.62 102.598 111.43 105.688 110.12L141.128 79.76L142.608 80.25C130.488 92.33 115.188 101.51 104.168 114.59L103.728 118.63C109.168 116.06 114.438 113.34 119.398 109.88C126.338 105.04 133.868 93.91 142.598 98.7L149.578 50.87C148.818 50 133.388 61.16 131.728 62.42C123.298 68.86 115.618 76.23 107.018 82.57C94.8184 91.56 71.8684 103.13 62.8484 113.17C58.4284 118.09 54.6384 125.15 49.3584 129.59L48.8684 128.11C55.6484 122.19 60.3984 112.1 67.3084 106.67C76.4784 99.47 89.9784 92.66 100.028 85.56C110.998 77.82 120.318 69.54 130.718 61.42C134.568 58.42 146.538 51.73 148.538 49.33C151.058 46.32 151.478 30.84 154.778 24.67C161.788 11.6 176.508 16.83 187.908 17.01C200.308 17.2 214.788 15.86 226.818 16.99C238.848 18.12 244.128 24.13 245.318 36.36L235.318 99.68L235.328 99.65ZM229.338 109.62C229.848 105.78 233.158 103.67 234.238 100.06C236.278 93.24 236.338 81.31 237.618 73.54C239.458 62.38 245.198 40.89 243.088 30.62C241.888 24.78 236.398 20.07 230.588 19.19C218.788 17.4 207.258 19.13 195.928 19.01C187.258 18.92 173.708 15.52 165.718 17.62C150.228 21.68 152.318 46.69 150.448 59.17C144.978 95.64 135.838 133.82 131.758 170.04C130.728 179.2 128.548 191.97 138.928 196.51C145.568 199.41 151.398 197.68 158.048 198.33C170.738 199.57 184.518 202.56 196.958 203.29C204.418 203.73 216.378 205.18 219.178 196.61C221.328 181.47 228.788 166.62 227.358 150.98C227.018 147.31 225.668 141.35 224.898 137.49C224.678 136.42 224.838 134.27 223.398 134.53C222.768 144.08 220.678 153.47 219.408 162.94C217.608 176.33 220.258 199.43 200.998 200.33C183.688 197 162.238 197.78 145.368 194.07C127.638 190.17 132.958 178.24 134.788 164.07C139.878 124.57 147.028 81.87 153.718 42.47C155.568 31.6 156.058 18.84 170.048 18.85C187.128 18.85 206.908 18.42 223.928 19.89C236.408 20.96 239.018 25.27 238.338 37.36C237.108 59.03 230.078 82.66 228.398 104.15C228.308 105.32 227.568 109.61 229.368 109.61L229.338 109.62ZM165.238 21.14C160.328 22.24 157.898 29.28 156.828 33.66C153.528 47.09 152.668 64.88 150.408 79.06C146.028 106.55 140.428 134.6 136.758 162.08C134.508 178.92 128.708 190.61 150.198 193.21C161.648 194.6 173.488 196.16 184.978 197.31C189.838 197.8 201.538 199.04 205.698 198.1C218.468 195.21 217.178 166.86 218.498 157.08C224.188 114.99 233.038 73.22 236.928 30.87C236.248 25.91 232.768 22.71 227.758 22C217.398 20.55 205.358 20.53 194.988 21.96C185.878 23.45 173.798 19.21 165.238 21.13V21.14ZM266.238 166.43C260.758 162.39 256.298 154.42 254.248 148.02C251.218 138.57 251.208 103.63 241.588 100.82C231.408 97.85 226.798 119.98 226.318 127.02C225.308 141.88 231.278 153.84 229.258 168.83C228.648 173.34 225.058 178.54 223.648 183.15C218.148 201.09 226.238 224 236.328 239.16C234.418 240.96 229.738 232.05 229.158 230.88C224.538 221.5 221.938 209.62 220.358 199.3C215.538 204.75 209.278 205.49 202.408 205.78C208.988 209.54 216.258 209.48 220.178 216.92C223.458 223.16 220.878 223.57 221.268 228.69C221.928 237.25 225.068 245.26 228.418 253.04L290.168 230.18C288.208 222.86 289.738 215.21 289.158 207.77C288.068 193.95 284.068 180.5 282.318 166.77C281.788 162.66 282.788 158.49 281.718 154.41C280.078 148.15 268.078 141.48 263.218 136.03C259.398 131.75 257.088 125.87 252.278 122.55C253.148 133.45 253.698 144.57 258.708 154.48C260.808 158.64 264.608 162.07 266.218 166.4L266.238 166.43ZM132.618 152.48C130.018 153.09 117.808 156.55 117.688 158.95C117.588 160.9 120.648 159.85 121.468 159.78C124.878 159.49 128.308 158.62 131.668 157.99L132.618 152.47V152.48Z" fill="#E62A9E"/>
<path d="M35.9102 153.47C38.8802 146.35 41.9802 138.48 46.8602 132.54C43.8902 139.66 40.7902 147.53 35.9102 153.47Z" fill="#E62A9E"/>
<path d="M229.34 109.62C227.54 109.62 228.28 105.33 228.37 104.16C230.05 82.6699 237.08 59.0399 238.31 37.3699C238.99 25.2799 236.38 20.9799 223.9 19.8999C206.89 18.4399 187.1 18.8699 170.02 18.8599C156.03 18.8599 155.53 31.6199 153.69 42.4799C147 81.8799 139.85 124.58 134.76 164.08C132.93 178.25 127.61 190.18 145.34 194.08C163.07 197.98 183.66 197.01 200.97 200.34C220.23 199.43 217.58 176.33 219.38 162.95C220.65 153.48 222.74 144.09 223.37 134.54C224.81 134.28 224.66 136.42 224.87 137.5C225.65 141.36 227 147.32 227.33 150.99C228.77 166.62 221.3 181.48 219.15 196.62C216.36 205.19 204.39 203.74 196.93 203.3C184.49 202.56 170.71 199.58 158.02 198.34C151.37 197.69 145.54 199.42 138.9 196.52C128.52 191.98 130.7 179.21 131.73 170.05C135.81 133.83 144.95 95.6499 150.42 59.1799C152.29 46.7099 150.2 21.6999 165.69 17.6299C173.68 15.5299 187.23 18.9299 195.9 19.0199C207.23 19.1399 218.76 17.4199 230.56 19.1999C236.36 20.0799 241.85 24.7799 243.06 30.6299C245.18 40.8899 239.44 62.3899 237.59 73.5499C236.31 81.3199 236.25 93.2499 234.21 100.07C233.13 103.68 229.82 105.79 229.31 109.63L229.34 109.62Z" fill="white"/>
<path d="M132.62 152.48L131.67 158C128.31 158.62 124.88 159.5 121.47 159.79C120.64 159.86 117.59 160.91 117.69 158.96C117.81 156.56 130.02 153.1 132.62 152.49V152.48Z" fill="white"/>
</svg>
