<svg width="337" height="272" viewBox="0 0 337 272" fill="none" xmlns="http://www.w3.org/2000/svg">
<path d="M82.5908 0.828814C102.98 -1.07281 124.223 1.84409 144.467 2.60152C183.069 4.0358 223.106 0.74824 261.579 3.23002C305.678 6.06635 304.404 53.0107 302.825 86.1603C312.882 105.692 324.536 124.064 336.269 142.597L336.318 222.127C334.867 232.392 335.834 243.48 335.028 253.81C333.513 273.132 318.25 271.52 302.954 270.956C285.627 270.312 269.509 268.861 251.844 268.958C200.09 269.264 148.368 270.151 96.5811 270.312C82.0105 270.36 67.3272 270.989 52.6439 270.908C40.491 270.844 24.7761 272.197 13.1552 270.94C1.53423 269.683 1.05068 259.885 0.518796 250.586C-0.512745 232.602 1.53422 214.214 1.80823 196.213C2.03388 181.918 0.776683 166.609 2.48517 152.282C4.32261 136.892 23.6962 117.36 32.7545 104.306C34.3018 102.082 41.5226 91.7362 41.7966 90.0763C41.9416 89.2061 40.7811 88.078 40.6522 86.9338C39.121 73.4774 40.5877 34.0106 46.7609 22.6169C52.934 11.2233 69.2613 2.06971 82.5424 0.828814H82.5908ZM301.374 87.933C300.633 68.5783 304.791 48.8368 297.151 30.4007C284.612 0.0713925 258.356 4.35811 230.569 3.84241C202.781 3.32672 172.432 5.00272 143.822 3.90687C121.338 3.03663 84.6861 -2.99055 64.8128 7.64566C43.1343 19.2488 44.1981 32.673 42.6025 54.6223C41.7804 65.8709 40.1525 77.2806 41.99 88.5454L60.0742 89.2222C59.365 79.1339 58.8815 67.982 59.3972 57.8454C61.3797 19.2649 75.2411 24.2285 106.993 23.3099C143.162 22.2624 179.394 22.0529 215.676 21.376C231.777 21.0699 259.71 18.2013 272.846 28.8375C284.483 38.2651 281.356 56.2661 283.274 69.4969L282.597 87.9491H301.358L301.374 87.933ZM116.358 64.6461C116.358 64.6461 116.938 64.6461 117.035 65.613C117.389 69.2229 116.196 89.2544 117.615 90.2375L143.452 89.7862C147.449 76.8939 156.346 57.6036 172.996 67.2246C181.748 72.301 182.328 80.826 180.41 89.8668L281.34 87.933L282.017 70.1092C280.018 56.8784 283.419 38.2651 271.202 29.1921C263.755 23.6644 250.7 22.3752 241.593 21.9401C220.882 20.957 197.189 22.1979 176.203 22.5847C151.414 23.0521 126.544 23.6 101.868 24.583C82.6714 25.3405 66.9243 20.4736 62.3468 44.5662C59.5584 59.2313 61.2669 74.4121 60.7672 89.2061L84.7183 90.2375L86.0884 64.7267C95.8719 62.8089 106.445 61.6003 116.261 63.518C116.616 63.792 116.325 64.4527 116.406 64.6461C106.526 62.7767 96.565 64.8395 86.6525 65.2907L86.2979 142.935L87.0716 143.451L117.067 142.887L116.422 64.6461H116.358ZM155.814 142.887C155.701 141.823 155.911 140.824 156.314 139.841C161.745 126.739 169.369 113.847 174.865 100.825C178.266 92.7676 182.908 80.4715 177.154 72.72C171.062 64.5172 159.537 63.7275 153.235 72.0915C144.548 90.3181 134.958 109.786 127.672 128.657C125.867 133.33 124.642 138.213 122.805 142.871H155.798L155.814 142.887ZM334.367 141.597C328.662 131.139 320.7 121.985 314.849 111.639C312.576 107.61 305.968 91.8007 303.631 89.8668C302.1 88.5937 293.412 89.2867 290.672 89.2383C268.043 88.916 244.93 89.3995 222.091 89.8346L180.813 90.6081L156.459 142.871L202.959 142.145C204.184 135.925 213.194 127.351 209.148 120.905C205.328 114.814 196.27 113.879 203.039 105.048C205.006 102.485 212.549 95.3944 215.643 95.5878C218.738 95.7812 223.009 104.032 224.476 106.853C227.039 111.736 238.144 141.162 240.965 142.097L310.416 141.549C312.882 112.799 273.555 105.048 261.773 130.107L258.662 141.549C257.663 104.838 313.866 104.306 311.706 141.549H334.351L334.367 141.597ZM85.2986 91.1561L43.8919 89.8668C57.592 106.74 68.2137 126.127 84.3315 140.937L85.2986 91.1399V91.1561ZM117.647 91.8168V142.903L122.112 142.838C126.431 124.547 135.925 108.158 142.888 90.8499L117.647 91.8168ZM85.2341 268.926C86.2495 262.093 84.2509 255.244 83.9769 248.653C82.9131 222.642 85.5565 194.617 85.9755 168.478C86.1045 160.485 85.5242 152.459 86.3301 144.498C68.5199 129.608 57.8177 108.69 42.9248 91.1883C34.0278 108.384 18.0872 122.549 8.69054 139.083C-0.174272 154.683 4.01636 174.602 3.83907 191.733C3.61342 213.021 -0.706153 238.387 2.79142 259.337C3.80684 265.397 7.11099 268.829 13.2519 269.57C24.9212 270.989 44.0692 270.215 56.496 270.312C66.1023 270.392 75.7568 270.441 85.2341 268.926ZM239.272 142.242C232.084 131.284 229.005 118.166 222.784 106.659C221.655 104.58 217.707 97.1671 215.627 96.9576C212.936 96.6837 202.491 106.562 201.863 109.109C200.783 113.492 210.808 117.988 211.469 123.129C212.243 129.189 206.295 136.86 203.684 142.242H239.272ZM86.6041 268.99C90.279 267.411 93.7766 268.926 97.2419 269.023C111.281 269.409 125.368 268.555 139.293 268.33C176.509 267.701 213.983 267.894 251.216 267.685C269.316 267.588 285.853 269.006 303.615 269.683C317.25 270.199 332.159 271.794 333.707 254.454C335.447 235.132 334.948 213.65 334.367 194.327L335.367 143.531L87.2327 144.869C87.0716 153.587 87.4584 162.354 87.265 171.089C86.7008 196.696 84.2187 223.803 85.2664 249.329C85.5242 255.76 87.3617 262.399 86.588 269.023L86.6041 268.99Z" fill="#3300FF"/>
<path d="M162.712 77.1196C169.707 76.7489 170.239 86.8533 164.533 87.9169C156.072 89.4962 155.588 77.4902 162.712 77.1196ZM162.116 78.3282C157.2 79.2307 158.038 88.6744 164.904 86.3537C169.353 84.855 167.145 77.4258 162.116 78.3282Z" fill="#3300FF"/>
</svg>
