<svg width="373" height="332" viewBox="0 0 373 332" fill="none" xmlns="http://www.w3.org/2000/svg">
<g clip-path="url(#clip0_237_5557)">
<path d="M133.821 63.8824L157.088 73.0142C178.082 85.1172 173.145 101.524 176.422 121.95C178.781 136.61 191.212 174.164 203.228 182.859C204.385 183.689 205.98 183.317 207.684 184.912C215.025 191.794 206.767 213.597 195.843 211.456C186.974 209.708 186.122 196.163 188.285 189.172C178.475 189.172 172.053 177.965 167.945 170.166C159.294 153.737 153.985 133.988 151.102 115.724C149.594 115.528 150.293 117.69 150.25 118.739C149.332 142.53 150.14 167.457 156.301 190.461L154.575 191.357C152.129 189.522 148.742 162.236 148.502 157.67C147.912 146.353 147.672 129.946 148.546 118.761C148.83 115.025 149.791 109.585 151.561 106.221C152.828 113.692 153.352 121.251 155.012 128.701C158.049 142.443 169.868 177.463 181.447 185.24C189.661 190.745 192.829 183.82 200.409 182.269C186.013 165.119 177.973 144.168 174.63 122.082C171.9 104.058 176.334 89.4647 160.212 76.8811C152.107 70.5674 142.909 69.7372 134.061 65.8923C132.925 65.3898 133.035 63.8824 132.51 63.8824C131.615 63.8824 130.369 64.8873 129.124 64.7781C107.037 62.8774 86.4141 38.0598 94.8032 15.7981C100.855 -0.215403 125.126 -4.58471 136.88 6.88473C138.54 8.50137 141.904 14.7495 142.494 15.099C144.045 16.0166 150.599 16.235 153.767 17.6769C158.945 20.0582 161.042 22.2647 160.561 27.9448C159.469 40.5503 155.362 44.7448 142.887 46.5581C141.904 53.964 142.56 61.5229 133.887 63.9042L133.821 63.8824ZM134.673 16.3443C131.636 9.06938 125.061 1.83817 116.519 2.53726L124.733 9.44077C128.578 13.8975 127.333 17.9172 134.673 16.3443ZM126.896 16.3224C124.908 11.4725 117.458 3.21451 112.018 3.5422C103.301 4.06652 96.2014 13.395 94.9124 21.5001L102.187 23.2915C103.629 15.9073 125.082 18.7911 126.896 16.3224ZM135.547 16.3443C136.749 16.5409 139.61 16.388 139.873 15.0335C140.331 12.5211 130.697 2.38434 126.918 3.38928C128.25 5.02777 130.129 5.90163 131.68 7.69305C133.734 10.0743 135.897 12.9799 135.569 16.3443H135.547ZM152.828 18.944C137.382 16.2787 121.784 20.0363 106.36 21.2379C103.607 22.4176 103.957 34.324 104.809 37.1203C106.338 42.0795 115.885 46.5144 120.844 46.5799C119.949 42.2543 118.769 29.6488 122.09 26.6559L152.828 18.944ZM157.809 22.5924C155.974 20.7573 149.267 22.1555 146.58 22.6142C143.521 23.1386 124.558 27.486 123.16 28.3599C120.953 29.7581 120.058 45.4439 125.126 47.0824C128.25 48.0873 150.84 43.0845 153.68 40.9435C156.52 38.8025 160.277 25.0392 157.809 22.5924ZM101.772 24.1653L94.9124 23.2478C94.1915 27.77 95.1964 32.904 100.527 33.6249C102.297 33.8652 101.663 33.4938 101.816 32.336C102.165 29.8673 101.641 26.7214 101.772 24.1435V24.1653ZM102.537 35.5037L95.7863 33.6249C96.3324 51.8012 140.987 79.9833 139.873 47.4538C129.321 50.2064 112.106 49.988 104.853 40.5721C103.498 38.8025 102.777 35.7003 102.559 35.5256L102.537 35.5037ZM200.038 184.191C199.164 184.366 198.268 185.874 197.132 186.376C189.268 189.74 187.957 188.801 189.137 199.113C191.059 215.869 206.09 210.626 208.078 196.447C208.842 191.073 207.029 182.793 200.038 184.191Z" fill="#FF7D19"/>
<path d="M102.695 53.5056C104.115 55.1659 96.9061 60.562 95.5297 61.4359C83.1864 69.257 71.9792 66.1111 62.4978 81.1196C51.2031 98.9901 43.0543 142.749 48.0135 163.066C49.7831 170.275 59.9417 190.615 66.4301 193.957C68.4619 195.006 74.2731 187.753 75.5402 185.765C71.6296 176.982 67.304 168.266 66.4301 158.456C65.032 142.902 70.9742 127.871 69.0736 112.601C68.8551 110.896 69.2702 111.355 70.7339 111.377C77.0694 131.41 72.1758 152.645 75.7586 173.072L74.2075 174.448C70.4281 157.757 74.1638 140.236 71.5859 123.48L68.156 148.975C67.9376 155.354 69.3576 164.726 71.3675 170.822C73.3773 176.917 79.1448 182.444 76.8073 188.277C84.4754 185.634 88.8447 189.675 90.3084 196.972C93.7602 197.693 97.4959 195.945 100.598 195.989C113.225 196.142 121.877 196.863 134.919 194.94C139.135 194.328 143.483 192.122 147.699 193.018C129.72 200.402 109.424 198.305 90.3521 198.589C86.376 217.704 59.9199 221.506 68.156 196.972C59.5266 192.319 52.6668 180.543 49.0184 171.564C39.8866 149.15 46.7464 114.96 55.201 92.7638C63.6556 70.5678 71.6952 67.8588 92.6897 61.1082L102.739 53.4619L102.695 53.5056ZM80.8052 189.457C66.4957 189.719 62.7818 214.362 76.1082 212.33C87.5994 210.582 92.4712 189.238 80.8052 189.457Z" fill="#FF7D19"/>
<path d="M267.783 171.018L316.981 188.692L319.646 188.299L317.92 237.563C316.195 237.191 316.435 235.968 316.282 234.657C315.321 226.093 317.593 215.65 317.964 206.934C318.052 204.618 318.423 191.75 317.746 191.117L264.396 172.678L263.457 170.188C267.215 169.489 270.382 165.928 273.9 163.765C287.139 155.66 303.24 150.154 317.899 145.108C318.248 146.834 317.134 147.183 315.932 147.882C310.689 150.897 299.264 153.999 292.884 156.796C290.94 157.648 266.057 168.768 267.783 171.018Z" fill="#FF7D19"/>
<path d="M351.631 331.743C348.878 333.644 343.22 320.273 343.001 317.936C344.793 316.144 348.485 326.238 349.533 327.395C350.407 328.357 350.276 328.641 351.216 327.417C354.973 317.346 371.03 298.056 367.906 287.416C365.591 279.552 340.358 278.241 333.28 277.083C332.493 276.952 330.68 276.711 330.92 275.575C341.101 276.318 367.185 276.427 370.113 288.727C372.713 299.585 355.301 321.104 351.631 331.721V331.743Z" fill="#FF7D19"/>
<path d="M339.532 311.884C338.592 313.72 335.884 314.703 334.07 315.489C319.171 321.999 294.55 320.055 279.039 315.751C277.968 315.445 263.44 310.88 266.062 308.411C271.829 310.748 277.357 313.283 283.496 314.746C301.868 319.116 322.077 319.553 339.532 311.884Z" fill="#FF7D19"/>
<path d="M343.008 292.004C339.425 295.499 331.713 296.941 326.732 297.771C310.173 300.546 284.569 297.072 270.674 286.957C269.604 286.171 268.271 286.062 268.664 284.227C275 286.477 280.614 289.994 287.015 292.222C306.284 298.995 323.739 298.689 343.008 292.004Z" fill="#FF7D19"/>
<path d="M370.667 221.134L368.023 193.105L370.667 161.515C372.502 161.996 372.436 163.896 372.48 165.404C372.742 175.89 370.121 187.534 370.623 199.135C370.863 204.749 373.026 212.811 372.415 218.141C372.262 219.43 372.24 220.806 370.667 221.134Z" fill="#FF7D19"/>
<path d="M315.329 247.918L262.613 228.059C279.763 231.882 295.907 239.791 312.751 244.903L315.329 247.918Z" fill="#FF7D19"/>
<path d="M368.804 222.75C351.523 230.287 334.789 238.851 318.797 248.791C318.36 246.978 319.758 246.825 320.763 245.995C334.09 234.81 353.336 228.518 368.498 220.282L368.804 222.75Z" fill="#FF7D19"/>
<path d="M368.062 159.767C360.504 158.718 352.683 155.288 345.364 152.645C337.215 149.696 327.537 146.419 319.825 142.727C318.799 142.224 317.269 142.268 317.051 140.76C329.372 144.19 341.606 148.538 353.578 153.06C358.297 154.852 364.458 156.446 368.062 159.745V159.767Z" fill="#FF7D19"/>
<path d="M368.937 161.515C367.866 163.612 365.376 164.792 363.475 165.972C353.142 172.329 335.926 182.619 325.2 187.338C323.955 187.884 322.884 188.539 321.42 188.299C319.935 186.988 328.63 182.597 329.482 182.116C342.306 174.776 355.698 168.069 368.958 161.537L368.937 161.515Z" fill="#FF7D19"/>
<path d="M260.881 226.312C258.26 227.12 259.024 223.231 259.112 221.527C259.221 219.474 259.985 217.595 260.051 215.541C260.466 201.581 260.051 187.337 262.17 173.596C263.306 191.182 261.624 208.769 260.859 226.312H260.881Z" fill="#FF7D19"/>
<path d="M345.582 288.552C345.713 289.863 345.931 290.584 344.271 290.3C342.96 290.06 330.682 283.113 329.35 281.889C328.498 281.103 327.384 280.076 328.301 279.049C329 278.263 342.676 289.099 345.582 288.574V288.552Z" fill="#FF7D19"/>
<path d="M17.9733 121.754C13.036 120.814 6.76607 119.394 2.37491 117.013C1.17335 116.358 0.255795 117.079 0.692726 114.85C5.38973 116.62 10.5892 117.821 15.177 119.788C16.2475 120.246 17.733 120.246 17.9733 121.754Z" fill="#FF7D19"/>
<path d="M22.2999 101.044C22.431 102.682 19.5691 101.83 18.6515 101.677C14.173 100.978 5.19407 98.5532 2.44141 94.9922L22.3218 101.044H22.2999Z" fill="#FF7D19"/>
</g>
<defs>
<clipPath id="clip0_237_5557">
<rect width="371.938" height="331.521" fill="white" transform="translate(0.582031 0.396484)"/>
</clipPath>
</defs>
</svg>
