<?xml version="1.0" encoding="UTF-8"?>
<svg id="Layer_1" data-name="Layer 1" xmlns="http://www.w3.org/2000/svg" viewBox="0 0 395.2 345.62">
  <defs>
    <style>
      .cls-1 {
        fill: #1e1e1e;
      }
    </style>
  </defs>
  <path class="cls-1" d="M214.3,103.09c1.87-.23,2.49-4.33,2.94-5.91,6.76-23.78.65-53.43,8.02-74.76,4.47-12.92,17.76-14.86,23.99-2.18,6.78,13.8,1.74,73,2.89,92.89.97,16.78,4.98,33.63,7.1,50.27,20.83-12.19,45.17-54.02,73.25-36.01,15.16,9.72-.11,13.94-6.93,18.97-18.36,13.56-25.54,36.48-36.56,55.68-11.79,20.53-24.62,39.87-42.54,55.63-3.15,9.61,21.12,69.62,18.68,72.47-2.52.48-2.75-1.18-3.61-2.88-3.81-7.53-10.98-33.72-13.53-43.23-2.07-7.7-4.04-15.6-4.15-23.65l-5.33,4.72c-2.13.88-2.15-1.36-1.58-2.77,1.75-4.33,12.89-11.75,16.43-15.5,11.09-11.74,21.03-26.59,29.27-40.5,14.66-24.73,23.82-58.42,53.45-68.96-3.52-8.76-14.23-11.68-22.96-10.51-16.19,2.16-36.25,29.37-51.17,38.69-3.18,1.99-5.58,4.47-9.83,3.76l4.53-5.04c-3-13.62-5.63-27.78-6.88-41.66-2.74-30.5,2.06-64.42-1.19-93.41-.97-8.64-8.95-19.74-17.23-11.31-12.1,12.33-1.01,72.82-15.35,90.01-1.62.21-2.38-.11-3.51-1.23-4.02-3.98-10.78-50.96-12.2-59.93-1.41-8.84-2.03-41.18-12.67-42.97-10.69-1.8-10.77,14.18-11.22,21.84-1.33,22.73,2.91,48.1,3.66,70.96.12,3.55-.13,6.72-1.26,10.09l-5.36-7.04c-11.6-20.24-14.67-54.13-26.31-73.02-6.59-10.7-15.21-5.88-16.7,5.08-3.35,24.64,15.77,58.04,18.52,82.99.54,4.91.46,10.72-4.41,13.28-.19-3.3-4.76-4.4-6.99-6.62-13.64-13.55-25.9-42.05-38.74-52.31-8.46-6.77-11.39,1.78-10.96,9.68,1.1,20.09,27.71,61.01,35.04,83.31,8.33,25.35,9.07,72.57,25.15,91.92,6.68,8.05,15.24,11.61,22.5,18.29-45.34-13.06-38.61-71.37-50.51-108.53-8.25-25.75-37.65-66.77-34.66-91.93.79-6.62,4.8-10.36,11.52-7.9,10.49,3.85,31.07,43.69,41.73,54.04.92.9,6.23,5.12,7.08,4.14.25-3.23-.02-6.32-.52-9.51-3.64-22.96-24.19-65.42-16.58-86.23,4.22-11.55,14.35-12.29,20.95-2.09,9.78,15.11,12.93,43.45,21.3,60.3l5.6,11.53c-1.4-16.75-1.9-33.45-2.37-50.24-.28-10.18-2.57-31.2,2.56-40.04,4.6-7.93,13.8-7.25,18.75-.19,6.55,9.34,10.56,57.92,13.37,72.95,1.55,8.27,3.38,16.49,5.56,24.61Z"/>
  <path class="cls-1" d="M2.6,133.84c-2.15-.45-2.2-2.33-2.4-4.1-1.94-17.14,10.46-48.64,19.19-63.67.96-1.66,10.98-16.92,12.77-15.01l-12.26,20.25C10.77,90.97,2.34,111.69,2.6,133.84Z"/>
  <path class="cls-1" d="M158.7,345.52c-2.77.17-2.09.39-2.36-1.75-1.77-13.86.9-31.68.05-46.19-.53-9.1-2.92-19.03-3.84-28.2-.18-1.8-1.32-2.89.84-4.26,7.21,25.54,7.56,53.99,5.31,80.41Z"/>
  <path class="cls-1" d="M345.55,243.81c5.95-4.6,12.51-8.13,18.3-13.03,5.4-4.57,10.1-10.59,15.42-15.33l15.94-24.84c-1.44,10.98-9.96,22.55-17.12,30.76-7.58,8.69-20.79,21.97-32.54,22.44Z"/>
  <path class="cls-1" d="M217.82,165.77l-16.24,30.46-7.99,31.01c-2.27-1.52-1.76-2.87-1.67-5.13.7-17.7,11.74-45.04,25.9-56.34Z"/>
  <path class="cls-1" d="M66.47,40.44c-10.49,10.85-19.1,23.01-23.07,37.82-1.73,6.46-1.87,14.17-3.54,20.17-.59,2.1-.33,2.75-2.95,2.3.46-17.89,6.92-39.12,18.95-52.58,2.73-3.05,6.29-7.39,10.61-7.71Z"/>
  <path class="cls-1" d="M352.65,201.24c-.45-2.13,1.15-2.85,2.33-4.16,9.01-9.93,21.95-17.81,27.86-31.27l5.26-13.05c.72,15.29-13.73,32.48-24.8,41.99-1.53,1.31-9.06,7.95-10.65,6.48Z"/>
  <path class="cls-1" d="M197.73,150.41c-1.86,7.08-41.79,26.57-43.75,24.82-.48-2.37,1.13-2.77,2.71-3.79,5.63-3.63,15.5-6.26,22.15-9.78,6.47-3.43,12.14-8.39,18.9-11.25Z"/>
</svg>